<?xml version="1.0" encoding="UTF-8"?>
<svg id="Layer_1" data-name="Layer 1" xmlns="http://www.w3.org/2000/svg" viewBox="0 0 950 950">
  <defs>
    <style>
      .cls-1 {
        fill: #82a369;
      }

      .cls-1, .cls-2, .cls-3, .cls-4, .cls-5, .cls-6, .cls-7, .cls-8, .cls-9, .cls-10, .cls-11, .cls-12, .cls-13, .cls-14, .cls-15 {
        fill-rule: evenodd;
      }

      .cls-2 {
        fill: #4c7938;
      }

      .cls-3 {
        fill: #fff;
      }

      .cls-4 {
        fill: #1d0f0e;
      }

      .cls-5 {
        fill: #b09871;
      }

      .cls-6 {
        fill: #000001;
      }

      .cls-7 {
        fill: #e61e26;
      }

      .cls-8 {
        fill: #413011;
      }

      .cls-9 {
        fill: #88a0b2;
      }

      .cls-10 {
        fill: #83a98d;
      }

      .cls-11 {
        fill: #070204;
      }

      .cls-12 {
        fill: #ea6224;
      }

      .cls-13 {
        fill: #fbd105;
      }

      .cls-14 {
        fill: #73b5d7;
      }

      .cls-15 {
        fill: #ea6924;
      }
    </style>
  </defs>
  <path class="cls-13" d="m474.96,10.97H136.3c6.47,5.2,12.46,10.77,16.03,18.22,3.84,8.01,3.21,15.87,3.17,24.45-.86,168.49-1.73,336.98-2.59,505.48-.06,11.89.93,22.2-5.92,32.71-5.13,7.87-12.86,12.67-22.51,15.21l350.48,216.22,350.49-216.22c-9.66-2.53-17.39-7.34-22.52-15.21-6.85-10.51-5.86-20.82-5.92-32.71-.86-168.49-1.73-336.98-2.59-505.48-.04-8.58-.67-16.44,3.16-24.45,3.57-7.45,9.56-13.02,16.03-18.22h-338.65Z"/>
  <path class="cls-6" d="m474.96,14.87H146.59c.56.56,1.12,1.14,1.66,1.73,3,3.24,5.62,6.81,7.58,10.92,3.78,7.89,3.68,15.28,3.58,23.18-.01,1-.03,2-.03,2.96l-2.59,505.48c0,1.4,0,2.79.01,4.16.06,10.78.11,20.44-6.55,30.66-2.87,4.4-6.46,7.94-10.67,10.73-1.91,1.26-3.95,2.37-6.11,3.33l341.49,210.67,341.49-210.67c-2.16-.96-4.2-2.07-6.11-3.33-4.21-2.79-7.8-6.33-10.67-10.73-6.66-10.22-6.61-19.88-6.55-30.66,0-1.37.02-2.76.01-4.16l-2.59-505.48c0-.96-.02-1.96-.03-2.96-.1-7.9-.2-15.29,3.57-23.18,1.97-4.11,4.58-7.67,7.58-10.92.54-.59,1.1-1.16,1.66-1.73h-328.36ZM136.3,7.07h677.31l2.44,6.94c-3.13,2.52-6.13,5.1-8.69,7.87-2.5,2.71-4.67,5.65-6.27,9-2.99,6.25-2.91,12.77-2.81,19.74.01.97.03,1.97.03,3.02l2.59,505.48c0,1.43,0,2.84,0,4.22-.05,9.55-.1,18.1,5.3,26.39,2.26,3.46,5.1,6.26,8.45,8.48,3.42,2.26,7.37,3.93,11.78,5.08l8.79,2.31-7.72,4.76-350.49,216.22-2.04,1.26-2.04-1.26-350.48-216.22-7.73-4.76,8.79-2.31c4.41-1.16,8.36-2.82,11.78-5.08,3.35-2.21,6.19-5.01,8.45-8.48,5.4-8.29,5.35-16.84,5.3-26.39,0-1.38-.02-2.79,0-4.22l2.59-505.48c0-1.05.02-2.04.03-3.02.09-6.97.18-13.49-2.81-19.74-1.6-3.35-3.77-6.29-6.27-9-2.56-2.77-5.56-5.35-8.69-7.87l2.44-6.94Z"/>
  <path class="cls-6" d="m472.01,683.12c-96.47-22.71-190.77-77.37-212.62-166.46-6.29-25.66-4.73-52.14-4.73-78.31V100.87h434.69v337.48c0,26.17,1.57,52.65-4.72,78.31-21.85,89.09-116.15,143.74-212.62,166.46Z"/>
  <path class="cls-7" d="m472.01,675.09c83.74-20.09,182.83-69.78,205.04-160.3,6.1-24.85,4.5-51.09,4.5-76.45V108.68h-419.08v329.67c0,25.36-1.59,51.6,4.5,76.45,22.2,90.51,121.3,140.21,205.04,160.3Z"/>
  <path class="cls-6" d="m472.01,667.06c80.04-19.57,176.17-67.32,197.46-154.12,5.91-24.1,4.28-49.96,4.28-74.59V116.48h-403.47v321.87c0,24.63-1.63,50.49,4.28,74.59,21.29,86.8,117.42,134.56,197.46,154.12Z"/>
  <path class="cls-2" d="m472.01,659.02c72.78-18.14,160.78-60.63,186.53-136.46h-.71c-12.81.18-24.37-2.2-36.76-4.92-12.03-2.64-23.64-5.06-36.04-4.95-12.42.11-25.46,2.53-37.7,4.6-22.6,3.84-43.98,6.93-67.03,6.93s-44.43-3.09-67.03-6.93c-12.24-2.08-25.28-4.49-37.7-4.6-12.4-.11-24.01,2.31-36.05,4.95-12.38,2.72-23.94,5.11-36.76,4.93-5.86-.08-11.73-.43-17.58-.94,25.35,76.42,113.75,119.18,186.83,137.39h0Zm194.04-183.63c.32-12.43-.11-24.94-.11-37.05V124.28h-387.87v314.06c0,11.6-.39,23.57-.15,35.49l1.22.15c7.98.98,16.13,1.78,24.17,1.89,8.54.11,17.93-2.13,26.25-3.96,15.81-3.47,30.04-6.07,46.36-5.93,15.23.14,30.08,2.65,45.05,5.19,19.96,3.39,38.96,6.22,59.3,6.22s39.34-2.84,59.3-6.22c14.97-2.54,29.83-5.05,45.06-5.19,16.33-.15,30.56,2.45,46.36,5.93,8.32,1.83,17.71,4.07,26.25,3.96,2.62-.04,5.24-.19,7.85-.4l.95-.08Z"/>
  <g>
    <path class="cls-10" d="m398.84,359v7.94c0,5.2.91,8.87,2.32,13.9,1.88-5.07,3.75-10.15,5.63-15.22,2.58-3.88,3.72-6.42,4.96-10.92,0,0-.66-2.32,2.32-2.65,2.98-.33,3.31.33,6.95-2.65,3.64-2.98,6.29-6.95,7.94-7.61,1.66-.66,7.28-4.3,7.28-4.3-1.54,3.31-3.09,6.62-4.63,9.93,2.43-1.54,4.85-3.09,7.28-4.63,1.32-1.1,2.65-2.2,3.97-3.31,5.83-4.04,11.27-6.63,17.87-9.27,1.21-.44,2.43-.88,3.64-1.32.44,3.09.88,6.18,1.32,9.27,1.87,1.54,3.75,3.09,5.62,4.63,1.32-1.21,2.65-2.43,3.97-3.64,1.32-2.43,2.65-4.85,3.97-7.28.66-1.43,1.32-2.86,1.99-4.3,3.09,2.43,6.18,4.85,9.27,7.28.77-1.21,1.54-2.43,2.32-3.64,1.43-1.32,2.87-2.65,4.3-3.97,1.32-1.54,2.65-3.09,3.97-4.63,3.2,3.53,6.4,7.06,9.6,10.59,1.66-1.54,3.31-3.09,4.96-4.63,2.43-.55,4.85-1.1,7.28-1.65,2.42,2.65,4.85,5.29,7.28,7.94,2.79,11.74,9.15,17.43,9.93,33.09,1.54-3.64,3.09-7.28,4.63-10.92.71,5.51,1.4,11.02,1.98,16.54,2.98-1.43,5.96-2.87,8.93-4.3.66,3.31,1.32,6.62,1.99,9.93.66-2.87,1.32-5.73,1.98-8.6,10.55,4.52,9.93,5.24,9.93-4.63,0-2.78.08-5.16,0-7.18-.43-10.15-9.84-8.65-17.2-11.68-7.26-7.26-12.9-18.27-12.9-28.79,0-2.98.66-11.58.66-11.58-3.75,3.2-7.5,6.4-11.25,9.59-.22-5.62-.44-11.25-.66-16.88-4.18,12.18-19.55,16.31-30.44,10.59-5.63-1.98-3.31-1.98-7.94-2.32-4.63-.33-4.67-5.61-10.63-6.61-7.39,3.48-18.43-.66-25.65-5.72-1.55-1.09,3.68,8.2,1.87,8.68-4.97,1.32-3.64-1.32-7.61,1.98-3.97,3.31-3.31,4.63-5.29,3.97-1.99-.66-8.6-3.31-8.6-3.31.55,2.76,1.1,5.51,1.66,8.27,0,0-5.63,1.99-7.61,1.99s-4.96-1.32-7.61.66c-2.65,1.99-3.97,3.64-5.63,6.29-1.66,2.65-1.32,4.96-3.64,6.29-3.5,2-7.96-3.27-9.91-.18-2.53,4.02-4.46,7.88-7.28,9.89,2.14,2.45,4.95,4.54,4.95,8.15,0,1.66,2.65,1.32-1.32,3.64-6.7,3.91-8.24,6.2-10.92,12.9,4.08-1.88,8.16-3.75,12.24-5.62Z"/>
    <path class="cls-10" d="m375.27,237.95c1.74,4.27,1.87,2.91.8,8.23-.45,2.27.51,1.43,1.88,3.7,1.36,2.27,4.09,3.18,3.64,6.37-.45,3.18-.91,9.1-.91,9.1.48,2.42.53,4.47.17,6.43-.46,2.51-1.6,4.87-3.36,7.68,0,0-1.36,2.73-4.09,3.19-2.73.45-8.19,2.27-8.19,2.27-7.02-4.52-4.87-4.65-9.36,1.15-2.55,3.29-5.57,4.98-9.29,7.95-2.58-2.27-5.15-4.55-7.73-6.82,0,0-5,2.27-5.46,5.91-.83,6.69-7.24,11.99-14.1,14.1,3.05-8.95,5-10.47,2.27-18.2-8.72,3.39-16.84,6.48-25.93,8.64,5.67-5.04,12.01-10.8,17.96-13.98,7.98-4.26,8.04-.4,11.73-9.55.9-2.22,1.73-4.3,2.15-5.58.91-2.73,1.82-10.01,4.1-10.01,7.74,0,5.4,7.14,9.4.57.12-.19.23-.37.35-.54.59,1.5,1.66,2.71,3.38,3.14,3.57.89,6.88-.49,8.6-3.06.85-1.28,1.6-2.58,2.39-3.89.73-1.06,3.96-3.53,5.08-4.5,1.6-1.38,3.27-2.9,4.55-4.59,2.93-3.91,6.43-7.75,9.18-11.81,1.18.65-.25,3.16.8,4.1Z"/>
    <path class="cls-9" d="m364.76,328.79c3.48-4.79,5.37-2.89,10.32-6.15,2.75-1.81,4.01-9.48,4.89-14.76,6.02,2.75,10.73,3.39,16.75,6.14,2.48,3.43,2.04,5.9,1.57,9.75-1.16,9.43-6.72,13.45-15.08,15.96-11.26,3.38-16.43,3.58-18.45-10.94Z"/>
    <path class="cls-10" d="m307.42,385.92c5.41-2.91,5.82-2.62,6.83-8.64,2.27.3,4.55.61,6.82.91,2.85-4.64,3.64-5.97,3.64-11.38,3.34.15,6.67.3,10.01.45-1.07-5.35-.97-8.93.91-14.1,1.36-1.21,2.73-2.43,4.09-3.64,5.37-8.73,2.58-10.92,13.2-17.29,2.27-1.36.91,3.64,5-2.73,4.09-6.37,3.18-7.28,6.37-8.64,3.19-1.36,6.37,3.64,9.1-4.55,2.73-8.19,1.82-12.28,1.82-12.28,0,0,4.55-1.82-3.64-4.55-8.19-2.73-8.65-7.74-12.74-5.01-2.45,1.64-4.57,3.69-6.72,5.61-2.15,1.92-4.34,3.72-6.93,4.86-4.64,2.03-14.87,13.41-18.2,12.74-2.27-.45-2.27-3.19-8.19-1.37-5.91,1.82-8.65,2.73-11.83,5.92-5.36,5.36-7.87,10.15-10.46,17.29-1.82,5-3.18,6.37-2.27,10.46,1.34,6.04,4.37,9.58,5.77,14.75,1.56,5.75.19,7.86,3.79,13.01,1.21,2.73,2.43,5.46,3.64,8.19Z"/>
    <path class="cls-9" d="m384.73,342.95c-11.31,7.08-24.58,1.56-22.94-9.99.04-.05-.7-.74-2.48,2.03-4.09,6.37-2.73,1.36-5,2.73-9.82,5.89-5.43,10.71-12.55,17.04,9.7,17.84,47.06,10.77,42.99-11.81Z"/>
    <path class="cls-10" d="m366.46,291.74c2.78-1.9,9.73-5.7,12.51-7.61,1.9-1.31,3.8-2.63,5.7-3.95,4.83-1.32,7.9-1.32,10.53-2.19,2.63-.88-.44,0,5.26-2.19,5.7-2.19,7.02-2.63,10.09-3.51,3.07-.88,5.26-2.19,5.26-2.19,0,0,.44-9.65,2.63-9.65s4.82,0,7.02.88c2.19.88,7.46,1.75,7.46,1.75-.15-1.61-.29-3.22-.44-4.82,0,0,8.77-2.19,14.03-4.38,5.26-2.19,9.65-3.51,9.65-3.51-.29-2.92-.59-5.85-.88-8.77,0,0,10.53,1.75,12.72,1.32,6.16-1.23,9.04-3.62,14.47-6.58,0,0,4.39-7.02.88-6.58s-14.03,2.19-14.03,2.19c1.46-3.07,2.92-6.14,4.38-9.21l-11.95,1.41c.79-4.35.67-8.95-.52-13.57,1.85-.59,3.7-.12,3.7-.12,6.79-1.51,12.82-5.48,18.86-8.77,2.78-.44,5.56-.88,8.33-1.32.15,5.7.29,11.4.44,17.11,2.05-1.02,4.09-2.05,6.14-3.07,0,0,4.82-5.7,5.7-3.51.88,2.19,3.07,7.9,4.39,10.09,1.32,2.19,3.07,5.26,6.58,4.82,3.51-.44,10.09-3.95,10.09-.44v13.16s5.7,8.33,9.65,4.82c3.95-3.51,4.39-10.09,6.58-10.09s3.51-1.32,7.9,1.32c4.39,2.63,12.28,1.76,13.16,4.83.88,3.07,2.63,1.31,2.19,6.58-.44,5.26-.44,0,0,10.53.44,10.53,2.19,17.98,2.19,17.98-9.15,2.55-16.08.29-21.49-5.26-2.34,3.95-4.68,7.89-7.02,11.84-2.49-3.95-4.97-7.9-7.46-11.84-1.17,4.24-2.34,8.48-3.51,12.72-3.07-4.39-6.14-8.77-9.21-13.16,0,0-6.58,3.95-9.65.88-3.07-3.07-5.26-5.26-5.26-5.26-3.07,2.63-6.14,5.26-9.21,7.9,1.32-4.24,2.63-8.48,3.95-12.72-6.29,5.43-9.3,4.28-11.84,2.19,0,0,7.89-14.47,5.7-13.59-2.19.88-7.45,6.58-9.65,7.46-2.19.88-9.65.44-10.53,2.63-.88,2.19-3.95,8.33-3.95,8.33,0,0-2.63,0-7.89,2.19-5.27,2.19-4.82-2.63-7.02,3.07-2.19,5.7-5.7,7.02-5.7,7.02,0,0-3.51-2.63-3.95,2.2-.44,4.82.88,3.51-.44,8.33-1.32,4.82,3.07,4.82-2.19,7.46-5.26,2.63-14.91-1.76-14.91-1.76,0,0-1.75,5.26-2.63,7.89-.88,2.63,5.26,1.32-1.75,4.82-11.13,5.57-4.46,10.08-17.93,15.65,1.81-11.55,3.71-14.16,3.9-22.67-5.83,6.37-3.68,9.82-8.89,9.33-.8-4.18-9.35-7.34-16.73-9.19,3.3-3.07,6.99-9.35,12.45-9.35-2.34-1.17-12.27,3.75-14.61,2.58-5.56.59-7.69-3.02-13.25-2.43Z"/>
    <path class="cls-9" d="m551.48,304.04c-6.94,10.96-7.07,29.23,2.69,35.5,16.33,10.48,26.24.56,34.32-10.95.43-4.3,3.32-11.16-2.22-11.16s-4.39,1.94-7.95.15c-3.57-1.78-3.37-7.5-6.58-6.79-3.21.71-7.19,3.84-10.4.98-3.21-2.85-3.77-3.71-5.2-6.56-.45-.91-.73-1.67-1.03-2.35l-3.65,1.17Z"/>
    <path class="cls-10" d="m562.12,292.11s5.35,7.13,5.71,4.64c.17-1.17-8.23-11.81-4.54-12.51,4.86-.92,10.84-3.53,10.84-4.85,0-10.55-5.02-9.96.61-20.24,9.63-4.37,8.95,2.32,14.13,8.36,0,0,9.27-6.06,12.84-5.35.85.17,1.96.28,3.17.38.61.44,1.31.79,2.1,1.05.76.25,1.5.37,2.22.4-.19.34-.36.64-.49.87-1.4,2.57-1.55,5.57.29,8.01,1.24,1.65,2.79,2.41,4.46,2.64-1.24,1.81-2.48,3.41-2.48,3.41,2.59,1.01,4.94,1.96,7.1,2.92,0,.98.04,1.97.13,2.94.37,3.68,1.82,7.3,5.96,8.1,2.55.5,4.89-.5,6.64-2.31.3-.3.58-.63.84-.96,4.13,3.17,7.96,7.08,12.47,12.51,6.08,7.32,10.82,15.66,8.23,26.01-1.07,4.28-1.43,9.27-1.78,16.05-.36,6.78-5.71,5.71-5.71,5.71,0,0-1.07,5.71-.36,9.63.71,3.93,1.78,11.06,1.07,15.69-.71,4.64-3.57,12.48-3.93,9.99-.36-2.49-3.57-9.99-4.64-13.55-1.07-3.57-1.07-9.63-4.64-6.78-3.57,2.85-3.21,9.27-7.49,1.43-4.28-7.85-10.34-17.83-10.34-17.83,0,0-1.78,12.84-4.64,7.85-2.85-4.99-4.64-9.63-4.64-14.62s6.42-6.78-.36-7.13c-6.78-.36-11.77-.36-11.77-4.64s.71-5.71.71-11.06,2.14-8.2-3.57-8.2-6.42,2.5-9.98.71c-3.57-1.78-3.93-7.13-7.13-6.42-3.21.71-5.71,6.06-8.92,3.21-3.21-2.86-3.21-4.64-4.64-7.49-1.43-2.85-1.07-4.28-5.35-6.06-4.28-1.78-4.64-2.14-9.27-2.85-4.64-.71-6.42-.71-6.42-3.92,16.65-4.09,10.81-6.95,23.54,4.28Z"/>
    <path class="cls-9" d="m522.61,283.11c-.02,2.59-.23,3.79-.75,6.44-2.62,13.28-12.57,21.29-25.31,13.85-3.98-2.33-6.94-5.82-8.94-9.3,6.58-3.82,10.56-11.9,9.52-19.08l6.31-3.38,2.71,2.71c2.95,2.95,7.34,2.69,11.1,1.3l5.36,7.45Z"/>
    <path class="cls-9" d="m450.72,284.48c7.32,7.74,20.46,11.07,29.73,6.59,9.96-4.81,10.19-11.18,9.8-19.1-.22-.95-.53-1.87-.94-2.77-1.97-.14-3.65-.71-5.69-2.38l-2.49-2.05,1.35-2.48c-.32-.17-.64-.33-.97-.48-2.28.36-5.09.38-6.64.85-1.09,2.58-1.18,4.91-2.41,7.39l-1.08,2.16h-2.35c-1.81.09-4.84,1.22-6.45,1.89-1.88.79-4.24-.68-5.84-.86-.82,3.29-4.31,7.58-7.37,9.02l1.35,2.21Z"/>
    <path class="cls-10" d="m485.67,187.02c-6.28,3.57-12.57,7.14-18.85,10.71-1.43.86-2.86,1.71-4.29,2.57-2.57.14-5.14.29-7.71.43-2-.14-4-.29-6-.43,0,0-4.71,3.43-8.57,4.29-3.85.86-10.28-2.14-10.71,2.14-.43,4.29-7.28,15.42-7.28,15.42-2.57-2.43-5.14-4.85-7.71-7.28-5.14,4.57-10.28,9.14-15.42,13.71-2.72-3-5.43-6-8.14-9-3.28,3.14-6.57,6.28-9.85,9.43,0,0-7.71-7.71-9.85-4.28-2.14,3.43-7.28,13.17-9.86,16.6-2.57,3.43-8.57,7.28-9.85,9.43-1.28,2.14-6,6.97-6.86,1.83-.86-5.14,1.71-14.57-.86-15.43-2.57-.86-13.28-1.71-16.28.43-3,2.14-2.57,3.43-7.71,6.86-5.14,3.43-10.86,2.31-11.29,4.45-.43,2.14-6,9.43-6,9.43-12.5-25,1.43-31.01-3.7-31.01s-17.21-8.76-6.07-10.04c11.14-1.28,18.92-1.95,18.92-1.95-2.43-1.71-4.85-3.43-7.28-5.14,13.26-10.08,20.59-4.36,33.42-9.86,3-1.29,12.43-1.71,4.29-3-8.14-1.28-26.14-2.57-22.71-5.14,3.43-2.57,12-8.14,15.42-8.57,3.43-.43,8.57,0,14.57-.43,6-.43,19.71-1.71,18.85-3.86-.86-2.14-10.28-7.71-15-9-34.01-9.27,38.94-8.03,45.41-6.86,4.71.86,12.43.86,15,3,2.57,2.14,9,7.71,12.85,6,3.86-1.71,15-5.57,16.71-2.57.17.29.56.45,1.13.51,2.35,2.77,5.7,5.08,9.37,5.08h9.41c-.06.44-.1.92-.12,1.46-.02.7-.03.47.04,1.21.27,2.95,1.19,5.67,3.8,7.38,3.39,2.23,6.89,1.02,10.5.51,3.04-.43,4.25-.97,6.72-2.58.62-.23,1.92-.36,2.53-.43.23-.02.62-.06.95-.06.43.54.92,1.35,1.26,1.81l.24.32c-1.21.77-2.36,1.43-3.42,1.92Z"/>
    <path class="cls-9" d="m382.18,235.56c-.06,1.26-.05,2.53.06,3.83.68,8.39,4.89,14.62,11.24,17.45,9.26,4.14,20.1.48,27.25-5.97-8.31-2.95-13.9-10.56-14.76-21.08l-7.26,6.47-3.63-4.01c-1.46-1.61-2.91-3.22-4.37-4.83-1.93,1.85-3.86,3.69-5.8,5.54l-2.72,2.6Z"/>
    <path class="cls-9" d="m410.97,225.35c.01.57.04,1.15.09,1.73,1.12,13.77,11.75,21.71,25.69,18.4,16.06-3.83,24.98-20.08,18.93-35.61-.54-1.39-1.21-2.63-1.96-3.74l-3.39-.24c-2.7,1.74-6.01,3.39-8.89,4.03-1.9.42-3.82.32-5.73.13-.32-.03-.8-.09-1.29-.15-1.47,4.89-5.29,11.53-7.5,15.12l-3.52,5.72-4.88-4.61c-1.36-1.28-2.72-2.57-4.07-3.85l-3.46,3.08Z"/>
    <path class="cls-10" d="m448.44,165.44c2.27-.89,4.55-1.77,6.83-2.65,1.9-.51,3.79-1.01,5.69-1.52-.63-3.29-1.26-6.57-1.9-9.86.76-1.51,1.52-3.03,2.28-4.55,0,0,8.34-2.66,12.52-2.66s7.21-1.14,11.38,0c4.17,1.14,7.96,3.41,8.72,1.14.76-2.28,3.79-9.48,3.79-9.48,0,0,6.45.76,9.48,3.03,3.03,2.27,10.24,5.69,14.41,5.69s16.31,1.14,18.2,1.14,1.9-2.27,14.03,3.41c12.14,5.69,20.1,9.1,20.1,9.1,0,0,6.07,9.48,8.34,1.9,6.59-8.71,11.04-8.62,17.73-5.7,3.51,1.53,7.63,3.84,12.99,6.08-1.39,3.29-2.78,6.57-4.17,9.86,0,0,3.41,4.55,8.72,5.31,5.31.76,2.28,6.45,2.28,6.45,0,0-1.9,6.07,4.93,6.45,6.83.38,12.14,1.14,12.14,1.14,0,0,.76,5.31-2.65,6.45-3.41,1.14-4.17,7.21-4.17,7.21,5.18,1.52,10.37,3.03,15.55,4.55-4.55.63-9.1,1.26-13.66,1.9,4.3,2.91,8.6,5.81,12.9,8.72-1.39,2.15-2.78,4.3-4.17,6.45,1.52.51,3.03,1.01,4.55,1.52-.25,2.65-.51,5.31-.76,7.97,0,0-4.55.76-4.17,2.65.38,1.9,12.13,12.14,12.13,12.14,0,0-7.21,2.65-6.07,6.45,1.14,3.79,7.59,12.14,5.31,12.14s-6.83-.76-6.45,1.14c.38,1.9,0,26.17-1.14,22.76-1.14-3.41-4.93-19.34-10.24-15.17-5.31,4.17-8.72,15.17-9.48,7.59-.76-7.59,3.03-17.83.76-17.83s-13.27,5.69-11,1.52c2.28-4.17,7.59-12.52,3.79-13.28-3.79-.76-9.48,7.21-10.62.38-1.14-6.83,0-12.52-2.65-15.17-2.65-2.65,3.79-4.17-7.21-3.79-11,.38-12.14.38-12.14.38,0,0-7.96,5.69-2.65-3.79,1-1.79,23.52-39.11,12.14-33.76-6.45,3.03-19.34,13.28-19.34,13.28,0,0-9.86,10.24-9.48,2.27.38-7.96.76-12.14-1.52-15.17-2.27-3.03-3.03-5.69-8.72-7.97-5.69-2.27-10.62-4.55-15.17-3.41-4.55,1.14-.76-4.17-7.97-6.07-7.21-1.9-9.48-6.45-14.41-2.28-4.93,4.17-2.65,8.72-9.48,7.59-6.83-1.14-5.69,2.28-11.38-2.27-5.69-4.55-4.17-8.72-11.38-7.97-7.21.76-4.17,2.28-9.48,3.03-5.31.76-6.83,1.9-7.21-2.27-.38-4.17,6.07-8.35-1.52-8.35h-14.03c-2.65,0-5.31-3.79-5.31-3.79Z"/>
    <path class="cls-9" d="m509.23,193.41c-1.6,9.78,2.33,19.26,10.28,22.52,4.52,1.86,8.78,1.75,12.75.39-2.45-7.37-2.17-16.31,1.38-24.69-1.15-1.25-1.19-2.15-1.88-3.61-.22-.1-.54-.19-.71-.23-2.35-.62-4.46-1.52-6.62-2.6-.47-.23-1.39-.75-2.07-1.03-.03.03-.07.06-.1.08-1.96,1.66-2.33,4.54-4.69,6.71-2.39,2.19-5.31,2.73-8.34,2.46Z"/>
    <path class="cls-9" d="m540.95,194.1c-6.96,11.27-3.91,25.52,5.79,29.5,5.8,2.38,11.12,1.18,15.89-1.78-2.21-1.88-2.99-4.79-2.85-7.76.08-1.68.74-9.78-.28-11.13-2.26-3.02-2.3-4.42-6.05-5.91-2.54-1.02-8.61-3.83-11.34-3.15-.39.1-.78.17-1.17.23Z"/>
  </g>
  <g>
    <path class="cls-12" d="m792.12,843.79c37.98,13.58,26.87-21.68,50.51-32.6-8.79-11.49-18.25-9.41-26.48-17.88-13.86,10.26-25.93,13-39.79,23.25,5.25,9.07,10.51,18.15,15.76,27.23Z"/>
    <path class="cls-11" d="m793.97,841.54c20.09,6.88,24.44-1.9,29.45-12.03,3.4-6.88,7.07-14.3,14.94-19.13-3.83-3.99-7.83-5.72-11.76-7.41-3.62-1.56-7.19-3.1-10.68-6.14-6.41,4.5-12.43,7.52-18.45,10.54-5.75,2.88-11.49,5.76-17.52,9.96l14.02,24.21h0Zm34.34-9.62c-6.25,12.63-11.64,23.54-37.1,14.43l.92-2.57-2.36,1.36-15.76-27.22-1.22-2.11,1.95-1.45c7.1-5.26,13.7-8.57,20.3-11.87,6.37-3.19,12.74-6.38,19.49-11.38l1.92-1.42,1.66,1.71c3.27,3.36,6.92,4.94,10.65,6.55,5.29,2.28,10.72,4.62,16.04,11.58l2.07,2.7-3.09,1.43c-8.34,3.85-12.05,11.36-15.46,18.26Z"/>
    <path class="cls-15" d="m876.16,716.58c30.25,14.53,21.29,36.9.67,54.87-15.49,13.5-37.34,24.19-54.27,35.63-19.18,12.97-36.57,25.29-30.44,36.71-18.46-13.21-33.55-25.08-41.19-46.21,31.64-29.85,63.28-59.7,94.93-89.56,10.1,2.85,20.21,5.71,30.31,8.56Z"/>
    <path class="cls-11" d="m877.34,714.13c6.68,3.21,11.58,6.81,14.96,10.69h0c3.78,4.34,5.68,9.01,6.05,13.86.36,4.75-.78,9.6-3.09,14.41-3.39,7.06-9.32,14.03-16.65,20.41h0c-10.09,8.8-22.77,16.38-35.08,23.74-6.74,4.02-13.36,7.99-19.45,12.1-9.48,6.4-18.51,12.65-24.29,18.57-5.13,5.26-7.64,10.19-5.28,14.58l-3.99,3.51c-9.33-6.67-17.81-13.02-25.02-20.45-7.29-7.52-13.18-16.08-17.15-27.05l-.61-1.68,1.3-1.23,94.93-89.55,1.12-1.06,1.48.42,30.31,8.56-.74,2.62,1.17-2.45h0Zm10.86,14.27c-2.88-3.3-7.12-6.42-12.97-9.26l-28.62-8.08-92.49,87.25c3.66,9.37,8.9,16.83,15.31,23.44,5.45,5.62,11.8,10.69,18.76,15.81.49-4.48,3.34-8.96,7.72-13.45,6.18-6.33,15.44-12.74,25.14-19.3,6.05-4.09,12.82-8.14,19.71-12.25,12.07-7.22,24.51-14.64,34.29-23.17h0c6.81-5.93,12.27-12.31,15.32-18.65,1.9-3.95,2.85-7.88,2.56-11.65-.28-3.68-1.77-7.28-4.73-10.68h0Z"/>
    <path class="cls-12" d="m157.79,843.79c-37.98,13.58-26.87-21.68-50.51-32.6,8.79-11.49,18.25-9.41,26.48-17.88,13.86,10.26,25.93,13,39.79,23.25-5.25,9.07-10.51,18.15-15.76,27.23Z"/>
    <path class="cls-11" d="m158.71,846.35c-25.46,9.11-30.86-1.8-37.1-14.43-3.41-6.9-7.13-14.41-15.46-18.26l-3.09-1.43,2.07-2.7c5.32-6.96,10.74-9.3,16.04-11.58,3.73-1.61,7.38-3.18,10.65-6.55l1.66-1.71,1.92,1.42c6.75,5,13.12,8.19,19.49,11.38,6.59,3.31,13.19,6.61,20.3,11.87l1.95,1.45-1.22,2.11-15.76,27.22-2.36-1.36.92,2.57h0Zm-32.22-16.84c5.01,10.13,9.36,18.91,29.45,12.03l14.02-24.21c-6.03-4.21-11.77-7.09-17.52-9.96-6.02-3.02-12.04-6.04-18.45-10.54-3.49,3.04-7.06,4.57-10.68,6.14-3.93,1.69-7.93,3.42-11.76,7.41,7.87,4.83,11.54,12.25,14.94,19.13Z"/>
    <path class="cls-15" d="m73.75,716.58c-30.25,14.53-21.29,36.9-.67,54.87,15.49,13.5,37.34,24.19,54.27,35.63,19.18,12.97,36.57,25.29,30.44,36.71,18.46-13.21,33.55-25.08,41.19-46.21-31.64-29.85-63.28-59.7-94.93-89.56-10.1,2.85-20.21,5.71-30.31,8.56Z"/>
    <path class="cls-11" d="m74.69,719.15c-5.85,2.84-10.1,5.96-12.97,9.26h0c-2.96,3.4-4.45,7-4.73,10.68-.29,3.77.66,7.7,2.56,11.65,3.05,6.34,8.51,12.72,15.32,18.66h0c9.79,8.52,22.22,15.95,34.29,23.17,6.88,4.11,13.66,8.16,19.71,12.25,9.71,6.56,18.97,12.97,25.14,19.3,4.38,4.49,7.23,8.97,7.72,13.45,6.96-5.12,13.31-10.18,18.76-15.81,6.41-6.61,11.65-14.06,15.31-23.44l-92.49-87.25-28.62,8.08h0Zm-17.08,5.67c3.38-3.88,8.28-7.48,14.96-10.69l1.17,2.45-.74-2.62,30.31-8.56,1.48-.42,1.12,1.06,94.93,89.55,1.3,1.23-.61,1.68c-3.97,10.97-9.86,19.53-17.15,27.05-7.2,7.43-15.69,13.78-25.02,20.45l-3.99-3.51c2.36-4.4-.15-9.32-5.28-14.58-5.78-5.93-14.81-12.17-24.29-18.57-6.09-4.11-12.71-8.07-19.45-12.1-12.31-7.36-25-14.94-35.08-23.73h0c-7.33-6.4-13.26-13.37-16.65-20.42-2.31-4.8-3.45-9.65-3.09-14.41.37-4.84,2.27-9.52,6.05-13.86h0Z"/>
    <path class="cls-12" d="m157.79,843.79c-37.98,13.58-26.87-21.68-50.51-32.6,8.79-11.49,18.25-9.41,26.48-17.88,13.86,10.26,25.93,13,39.79,23.25-5.25,9.07-10.51,18.15-15.76,27.23Z"/>
    <path class="cls-11" d="m158.71,846.35c-25.46,9.11-30.86-1.8-37.1-14.43-3.41-6.9-7.13-14.41-15.46-18.26l-3.09-1.43,2.07-2.7c5.32-6.96,10.74-9.3,16.04-11.58,3.73-1.61,7.38-3.18,10.65-6.55l1.66-1.71,1.92,1.42c6.75,5,13.12,8.19,19.49,11.38,6.59,3.31,13.19,6.61,20.3,11.87l1.95,1.45-1.22,2.11-15.76,27.22-2.36-1.36.92,2.57h0Zm-32.22-16.84c5.01,10.13,9.36,18.91,29.45,12.03l14.02-24.21c-6.03-4.21-11.77-7.09-17.52-9.96-6.02-3.02-12.04-6.04-18.45-10.54-3.49,3.04-7.06,4.57-10.68,6.14-3.93,1.69-7.93,3.42-11.76,7.41,7.87,4.83,11.54,12.25,14.94,19.13Z"/>
    <path class="cls-15" d="m73.75,716.58c-30.25,14.53-21.29,36.9-.67,54.87,15.49,13.5,37.34,24.19,54.27,35.63,19.18,12.97,36.57,25.29,30.44,36.71,18.46-13.21,33.55-25.08,41.19-46.21-31.64-29.85-63.28-59.7-94.93-89.56-10.1,2.85-20.21,5.71-30.31,8.56Z"/>
    <path class="cls-11" d="m74.69,719.15c-5.85,2.84-10.1,5.96-12.97,9.26h0c-2.96,3.4-4.45,7-4.73,10.68-.29,3.77.66,7.7,2.56,11.65,3.05,6.34,8.51,12.72,15.32,18.66h0c9.79,8.52,22.22,15.95,34.29,23.17,6.88,4.11,13.66,8.16,19.71,12.25,9.71,6.56,18.97,12.97,25.14,19.3,4.38,4.49,7.23,8.97,7.72,13.45,6.96-5.12,13.31-10.18,18.76-15.81,6.41-6.61,11.65-14.06,15.31-23.44l-92.49-87.25-28.62,8.08h0Zm-17.08,5.67c3.38-3.88,8.28-7.48,14.96-10.69l1.17,2.45-.74-2.62,30.31-8.56,1.48-.42,1.12,1.06,94.93,89.55,1.3,1.23-.61,1.68c-3.97,10.97-9.86,19.53-17.15,27.05-7.2,7.43-15.69,13.78-25.02,20.45l-3.99-3.51c2.36-4.4-.15-9.32-5.28-14.58-5.78-5.93-14.81-12.17-24.29-18.57-6.09-4.11-12.71-8.07-19.45-12.1-12.31-7.36-25-14.94-35.08-23.73h0c-7.33-6.4-13.26-13.37-16.65-20.42-2.31-4.8-3.45-9.65-3.09-14.41.37-4.84,2.27-9.52,6.05-13.86h0Z"/>
    <path class="cls-13" d="m404.09,935.55c-95.02-12.76-176.94-52.75-247.77-123.93-76.29-76.67-57.33-90.55-82.57-95.04,21.23-11.17,42.47-22.35,63.7-33.53,12.72-5.27,21.85-.17,29.77,7.93,12.42,12.7,21.68,28.8,35.65,46.7,47.68,61.07,126.12,102.81,204.72,116.88,47.53,8.5,100.25,7.71,147.37-2.5,74.28-16.1,146.95-56.59,192.06-114.38,13.97-17.9,23.23-34,35.65-46.7,7.92-8.1,17.05-13.2,29.77-7.93,21.23,11.18,42.47,22.35,63.7,33.53-25.24,4.49-6.28,18.37-82.57,95.04-68.65,68.99-147.71,108.68-239.02,122.67-49.43,7.58-100.92,7.92-150.48,1.26Z"/>
    <path class="cls-11" d="m403.73,938.26c-47.81-6.42-92.32-19.7-133.8-40.31-41.48-20.62-79.91-48.59-115.54-84.4-41.7-41.91-55.15-65.24-62.8-78.5-5.89-10.23-8.04-13.94-18.31-15.77l-.8-5.1,63.7-33.53.23-.11c7.03-2.91,13.12-2.94,18.59-1.11,5.34,1.79,9.94,5.33,14.18,9.66,7.83,8,14.35,17.23,21.53,27.38,4.41,6.24,9.08,12.84,14.31,19.55,23.05,29.52,53.39,54.5,87.48,73.97,35.77,20.43,75.66,34.77,115.58,41.91,23.66,4.23,48.61,6.15,73.52,5.72,24.74-.42,49.45-3.15,72.8-8.22,37.76-8.18,75.07-22.7,108.49-42.6,31.85-18.97,60.19-42.84,82-70.78,5.23-6.7,9.9-13.3,14.31-19.54,7.18-10.15,13.7-19.38,21.53-27.39,4.24-4.33,8.84-7.88,14.18-9.66,5.46-1.83,11.55-1.8,18.59,1.11l.23.11,63.7,33.53-.8,5.1c-10.28,1.83-12.42,5.54-18.31,15.77-7.65,13.27-21.1,36.6-62.8,78.5-34.54,34.71-71.7,62.05-111.7,82.47-40.02,20.43-82.89,33.94-128.84,40.98-24.71,3.79-49.99,5.78-75.33,5.99-25.47.21-50.95-1.37-75.92-4.73h0Zm-131.39-45.2c40.95,20.36,84.9,33.46,132.11,39.8,24.75,3.32,49.97,4.9,75.15,4.68,24.99-.21,50.01-2.18,74.56-5.94,45.36-6.95,87.68-20.29,127.17-40.45,39.51-20.17,76.21-47.17,110.31-81.44,41.23-41.43,54.44-64.35,61.94-77.37,5.35-9.28,8.03-13.94,15.07-16.61l-57.39-30.2c-5.63-2.3-10.42-2.34-14.65-.93-4.38,1.47-8.31,4.53-12,8.3-7.52,7.69-13.93,16.75-20.98,26.72-4.39,6.21-9.04,12.78-14.48,19.75-22.23,28.48-51.09,52.79-83.52,72.11-33.96,20.22-71.83,34.97-110.11,43.26-23.65,5.13-48.72,7.89-73.87,8.32-25.25.43-50.56-1.51-74.57-5.81-40.53-7.25-81.01-21.8-117.31-42.53-34.68-19.8-65.57-45.25-89.08-75.36-5.45-6.98-10.09-13.54-14.49-19.76-7.05-9.97-13.46-19.03-20.97-26.72-3.69-3.77-7.61-6.83-12-8.3-4.23-1.42-9.02-1.37-14.65.93l-57.39,30.2c7.04,2.67,9.72,7.33,15.07,16.61,7.51,13.03,20.72,35.94,61.94,77.37,35.2,35.38,73.15,62.99,114.09,83.35Z"/>
    <path class="cls-7" d="m125.82,757.2l36.23-30.4,6.14,7.31-16.09,13.5,28.49,1.28,8.25,9.84-25.56-1.8-10.05,32.94-7.94-9.46,8.65-24.23-11.04-.86-10.95,9.19-6.14-7.31h0Zm55.62,28.01c-5.13,5.5-7.65,11.24-7.54,17.21.12,5.96,2.74,11.35,7.89,16.15,5.07,4.73,10.6,6.94,16.58,6.62,5.98-.32,11.57-3.27,16.79-8.86,5.25-5.63,7.82-11.46,7.71-17.47-.11-6.02-2.71-11.4-7.81-16.15-2.82-2.63-5.72-4.49-8.74-5.59-2.25-.83-4.71-1.18-7.37-1.06-2.67.13-5.22.72-7.65,1.74-3.29,1.41-6.56,3.88-9.85,7.4h0Zm7.41,6.47c-3.65,3.92-5.51,7.74-5.59,11.44-.08,3.71,1.28,6.86,4.07,9.46,2.78,2.59,6,3.72,9.66,3.38,3.65-.35,7.34-2.52,11.09-6.53,3.69-3.96,5.58-7.73,5.68-11.3.08-3.57-1.33-6.7-4.2-9.38-2.88-2.69-6.13-3.86-9.73-3.53-3.6.34-7.25,2.48-10.97,6.47h0Zm36.28,60.46l22.54-32.19-11.49-8.05,4.59-6.56,30.79,21.56-4.59,6.56-11.47-8.03-22.54,32.19-7.83-5.48h0Zm71.35,41.1l4.6-50.74-9-4.58-37.89,33.78,9.03,4.6,8.35-7.81,16.85,8.58-1.2,11.45,9.26,4.72h0Zm-7.17-24.66l-11.5-5.86,13.66-12.74-2.16,18.6h0Zm57.68,41.82l10.64-46.08,13.93,3.22,1.1,33.37,15.52-29.53,13.96,3.22-10.64,46.09-8.64-1.99,8.38-36.28-17.53,34.17-8.96-2.07-.74-38.39-8.38,36.28-8.64-1.99h0Zm68.25-10.86c.42-4.81,1.49-8.77,3.21-11.9,1.28-2.3,2.93-4.33,4.95-6.08,2.02-1.74,4.17-2.97,6.46-3.7,3.05-.99,6.48-1.31,10.32-.98,6.94.61,12.31,3.24,16.1,7.92,3.79,4.67,5.35,10.84,4.68,18.51-.67,7.61-3.26,13.38-7.77,17.32-4.51,3.93-10.23,5.59-17.14,4.99-7.01-.61-12.4-3.24-16.16-7.87-3.76-4.64-5.31-10.71-4.65-18.2h0Zm9.82.54c-.46,5.33.42,9.49,2.64,12.46,2.23,2.97,5.23,4.61,9.03,4.95,3.78.33,7.02-.75,9.7-3.29,2.66-2.52,4.24-6.5,4.72-11.97.47-5.4-.36-9.53-2.48-12.4-2.14-2.86-5.17-4.47-9.09-4.81-3.93-.34-7.21.73-9.84,3.21-2.63,2.48-4.19,6.42-4.67,11.85h0Zm69.57-21.27l9.51-.5,1.57,29.9c.21,3.91.01,6.94-.56,9.07-.78,2.8-2.33,5.09-4.68,6.88-2.34,1.8-5.5,2.79-9.47,3-4.66.24-8.31-.87-10.97-3.35-2.64-2.48-4.12-6.24-4.4-11.28l8.93-1.5c.25,2.7.75,4.59,1.49,5.68,1.12,1.64,2.74,2.41,4.84,2.29,2.12-.11,3.6-.79,4.41-2.06.82-1.26,1.13-3.8.92-7.62l-1.6-30.51h0Zm30.76,22.88c-.75-4.76-.68-8.87.23-12.32.69-2.54,1.8-4.91,3.34-7.09,1.54-2.17,3.33-3.9,5.37-5.16,2.72-1.7,5.97-2.84,9.78-3.44,6.88-1.09,12.73.17,17.54,3.79,4.81,3.61,7.82,9.22,9.02,16.82,1.19,7.55.07,13.77-3.35,18.68-3.43,4.9-8.57,7.9-15.43,8.99-6.95,1.1-12.81-.15-17.58-3.73-4.77-3.59-7.74-9.11-8.92-16.54h0Zm9.66-1.85c.84,5.29,2.7,9.11,5.57,11.45,2.88,2.34,6.19,3.21,9.96,2.62,3.75-.59,6.63-2.43,8.61-5.53,1.97-3.09,2.54-7.34,1.68-12.76-.85-5.35-2.65-9.16-5.41-11.43-2.77-2.26-6.1-3.08-9.98-2.47-3.89.62-6.82,2.45-8.77,5.49-1.95,3.04-2.51,7.24-1.66,12.63h0Zm60.77,12.62l-14.62-44.98,9.08-2.95,6.49,19.97,11.86-25.94,12.21-3.97-11.24,23.02,26.78,21.66-11.75,3.82-19.22-17.1-4.93,9.91,4.42,13.6-9.08,2.95h0Zm58.86-19.82l32.05-16.33-3.62-7.1-23.54,11.99-5.85-11.47,21.16-10.78-3.62-7.09-21.15,10.78-4.76-9.34,22.73-11.59-3.63-7.13-31.24,15.92,21.47,42.14h0Zm51.28-27.09l-27.8-38.26,16.27-11.82c4.09-2.97,7.31-4.78,9.66-5.44,2.35-.66,4.73-.52,7.11.43,2.4.95,4.4,2.56,6.05,4.82,2.08,2.87,2.97,5.86,2.64,8.96-.33,3.09-2,6.11-5.01,9.03,2.39-.23,4.54-.17,6.48.21,1.94.38,4.9,1.38,8.91,3.02l10.1,4.07-9.24,6.71-11.64-4.27c-4.15-1.53-6.86-2.42-8.16-2.66-1.29-.24-2.45-.2-3.48.09-1.03.31-2.42,1.11-4.2,2.4l-1.56,1.13,11.61,15.97-7.73,5.62h0Zm-8.31-27.7l5.71-4.15c3.7-2.69,5.91-4.53,6.61-5.51.69-.98,1.02-2.04.99-3.19-.04-1.14-.46-2.29-1.3-3.44-.94-1.29-2.04-2.07-3.3-2.37-1.26-.29-2.6-.09-4.01.61-.68.37-2.59,1.69-5.73,3.97l-6.02,4.37,7.05,9.7h0Zm65.72-16.33l6.99-6.52-26.8-28.74,10.24-9.55-5.46-5.86-27.49,25.64,5.46,5.85,10.26-9.57,26.8,28.74h0Zm12.14-43.02c-3.69-3.1-6.33-6.25-7.91-9.45-1.15-2.37-1.87-4.89-2.14-7.54-.26-2.65-.04-5.12.67-7.42.94-3.07,2.64-6.06,5.12-9.01,4.48-5.34,9.72-8.22,15.72-8.65,6-.43,11.95,1.83,17.85,6.78,5.85,4.91,9.09,10.34,9.73,16.3.63,5.95-1.28,11.59-5.74,16.9-4.53,5.39-9.76,8.29-15.71,8.72-5.96.42-11.82-1.8-17.58-6.63h0Zm6.08-7.74c4.1,3.44,8.01,5.1,11.72,4.99,3.71-.12,6.78-1.64,9.23-4.56,2.44-2.91,3.41-6.18,2.87-9.83-.54-3.63-2.9-7.2-7.1-10.73-4.15-3.48-8.01-5.17-11.58-5.08-3.57.11-6.62,1.67-9.15,4.68-2.53,3.02-3.53,6.32-3.02,9.9.52,3.57,2.86,7.11,7.03,10.62Z"/>
  </g>
  <g>
    <path class="cls-1" d="m311.7,681.82c13.41.26,23.88-2.37,37.81.73-5.56-3.02-11.11-6.04-16.67-9.05,13.65-2.84,26.66-.36,38.89,8.54,1.85-2.63-.18-7.63-3.97-13.71,21.97,5.19,40.13,18.13,47.38,44.69,2.11,7.73,15.26,12.96,19.65,21.38,2.15,4.12-5.34,1.54-7.03-.48-7.66-9.18-16.61-16.16-20.58-14.09-19.07,15.39-39.58,21.26-62.17,13.2,5.56-2.93,11.11-5.87,16.67-8.8-16.36,1.38-30.21-3.79-42.33-13.45,6.97-.52,13.93-1.03,20.9-1.55-14.55-3.62-22.47-12.72-28.55-27.38Z"/>
    <path class="cls-3" d="m327,690.8c12.94,8.99,27.32,15.58,44.06,18.99-4.94,3.25-11.77,5.67-20.08,6.6,10.88.25,19.6-1.35,25.49-5.63,4.87.77,9.94,1.28,15.22,1.5-3.78,4.61-9.67,8.98-17.48,12.33,10.15-2.81,17.85-6.7,22.32-12.2,3.36.04,9.12-.17,13.34,2.24-4.35-4.23-6.03-5.16-11.26-6.52-.81-7.12-5.34-14.59-12.59-22.44,5.63,8.04,8.37,15.9,8.59,22.38-6.12-.18-12.61-.8-19.26-1.85-1.72-6.78-6.91-13.53-14.69-20.37,5.87,6.77,9.33,13.63,10.56,19.66-14.94-2.75-30.47-7.67-44.23-14.71Z"/>
    <path class="cls-1" d="m239.66,599.88c11.95,1.56,24.9,8.75,34.12,21.39-1.66-6.19-.92-11.43-2.87-16.44,11.03,3.44,11.66,5.65,18.99,17.12,2.42-1.6,2.36-6.46,1.18-12.8,20.22,11.73,27.51,31.22,24.86,55.86-.77,7.17,13.53,10.49,15.37,17.88,1.02,4.07-3.87,5.72-4.61,3.47-3.4-10.21-13.48-14.68-17.49-14.26-21.04,6.64-43.66,5.48-59.95-8.7,5.62-.63,11.24-1.26,16.86-1.9-13.83-2.38-28.24-7.09-35.23-19.17,6.01,1.85,16.19-2.3,22.2-.45-11-7.82-13.15-27.73-13.43-42.02Z"/>
    <path class="cls-3" d="m246.89,611.86c7.1,14.07,16.63,26.7,29.73,37.66-5.89.51-13.04-.61-20.81-3.74,9.45,5.4,17.88,8.13,25.1,7.17,3.92,2.99,8.14,5.85,12.68,8.56-5.52,2.26-12.78,3.3-21.24,2.53,10.26,2.35,18.89,2.6,25.44-.11,1.42.79,7.51,4.11,13.5,4.36-6.45-3.34-8.1-6.06-9.64-7.14,2.67-6.65,2.24-15.37-.4-25.72,1.13,9.75-.2,17.96-3.09,23.77-5.3-3.07-10.72-6.7-16.06-10.79,1.71-6.79.35-15.19-3.24-24.9,1.94,8.74,1.72,16.42-.06,22.32-11.84-9.53-23.16-21.23-31.91-33.97Z"/>
    <path class="cls-1" d="m507.01,784.09c1.3-5.77,2.01-8.94,3.31-14.71-31.84-26.72-80.72-32.78-110.71-49.13-1.41,1.36-2.82,2.72-4.23,4.08,31.11,20.6,76.79,19.13,111.63,59.77Z"/>
    <g>
      <g>
        <path class="cls-1" d="m491.12,51.62c-12.25-7.02-32.77-10.86-47.09-9.3,5.16-2.17,9.22-7.24,13.79-8.69-9.42-3.77-15.74-2.67-29.03,1.19-.51-1.96-1.86-6.07,3.1-8.55-20.84-4.28-44.77,12.81-51.94,27.36-2.29,4.66-35.23-5.5-41.3-2.84-3.34,1.46,2.3,4.45,4.51,4.33,11.23-.64,35.3,3.56,37.61,5.73,4.33,6.35,5.65,15.95,26.19,22.89,1.83-5.31.19-3.7.83-6.3,17.17,8.39,22.52,5.61,29.76,4.38-3.22-3.07-6.2-4.43-8.17-7.89,10.53,5.65,22.56,2.16,35.06-.23-5.12-2.06-9.81-4.99-14.93-7.05,12.28,1.64,25.56-12.29,41.61-15.04Z"/>
        <path class="cls-3" d="m461.71,50.96c-13.44,3.18-25.9,6.83-39.3,8.69,2.91,3.69,4.49,8.43,12.32,10.97-10.49-2.22-14.71-5.71-17.78-10.35-5.14.38-9.14.65-15.52-.34,2.06,3.84,4.48,7.53,10.54,11.37-8.2-3.91-13.94-8.03-16.4-12.56-2.86-.58-10.32-1.82-13.51-2.74,3.55-.76,7.61-1.66,13.3-1.63,2.08-4.85,3.97-11.78,12.75-15.57-7.43,4.3-6.15,11.19-7.5,15.72,6.82,1.47,11.14,1.06,16.76.34,2.38-4.61,2.85-9.67,11.73-13.59-6.67,3.1-5.55,8.54-6.64,12.8,11.51-.29,23.69-2.47,39.26-3.12Z"/>
      </g>
      <g>
        <path class="cls-1" d="m380.54,69.66c-13.27,8.31-34.74,3.1-49.51.39,5.21,3.03,8.53,7.47,13.17,9.55-10.08,4.31-16.05,4.82-29.59-.78-.68,2.47.51,5.09,5.48,8.49-22,4.39-42.09,1.89-56.24-15.64-4.12-5.1-53.51,32.24-51.18,53.69-3.37-2.03-7.72-2.09-5.73-1.08.66-26.74,34.21-47.73,49.6-56.7,6.25-3.64,4.55-3.94,7.23-10.09,4.4-10.11,13.81-26.65,31.6-32.98,1.51,6.85-.08,4.73.39,8.06,18.5-9.81,26.05-8.13,33.5-6.2-3.58,3.74-8.99,7.45-11.29,11.75,11.38-6.66,27.39-.49,40.22,3.18-5.48,2.36-14.33,4.74-19.81,7.1,12.91-1.47,25.68,16.94,42.17,21.24Z"/>
        <path class="cls-3" d="m350.89,62c-14.2-4.89-30.35-10.08-46.79-9.4,3.85-3.82,9.67-7.34,17.22-9.92-10.23,2.12-18,5.34-22.5,10.25-4.73.39-9.59,1.04-14.58,1.97,2.45-4.73,6.93-9.71,13.44-14.24-8.83,4.56-15.11,9.52-18,15.16-3.15.69-9.97,2.05-12.95,4.9,5.6-.37,8.36-.45,12.01-.81,2.43,5.89,8.41,11.28,17.03,16.41-7.15-5.65-11.55-11.75-13.28-17.22,5.76-1.16,11.97-2.02,18.43-2.54,3.2,5.41,9.64,10.04,18.51,14.2-7.07-4.51-11.91-9.61-14.48-14.48,14.61-.85,31.43,2.67,45.94,5.72Z"/>
      </g>
    </g>
    <g>
      <path class="cls-1" d="m171.77,418.42c-5.3,13.39,3.98,30.94,9.52,43.22-3.93-3.88-8.84-5.8-11.76-9.38-2.11,9.73-1.4,15.04,6.65,25.6-2.22,1.13-4.96.67-9.21-2.91.19,20.13,11.69,33.87,31.27,42.36,5.7,2.47,2.11,14.59,6.86,19.11,2.61,2.49,5.93-.46,4.56-1.98-6.2-6.89-5.26-16.34-3.24-19.16,6.52-6.06,22.45-11.78,25.53-32.56-6.85.19-4.5,1.11-7.78,1.42,5.69-18.26,2.57-24.48-.76-30.54-2.86,3.94-5.33,9.47-8.98,12.41,4.1-11.37-5-23.97-11.08-34.34-1.17,5.29-1.67,13.53-2.84,18.82-1.18-11.56-21.32-18.66-28.73-32.08Z"/>
      <path class="cls-3" d="m185.01,442.57c7.52,11.3,15.7,24.23,18.33,38.7,2.89-4.19,5.09-10.03,6.04-17.18.02,9.37-1.51,16.85-5.3,21.84.58,4.21.92,8.58,1.03,13.14,4.04-3.17,7.9-8.17,10.93-14.83-2.6,8.69-6.09,15.25-10.9,19-.03,2.89.03,9.13-2.1,12.35-.77-4.96-1.23-7.38-1.62-10.64-6.12-.83-12.46-4.86-19.09-11.24,6.83,4.99,13.54,7.49,19.12,7.79-.05-5.27-.46-10.87-1.25-16.61-5.81-1.6-11.52-6.19-17.28-13.01,5.72,5.17,11.57,8.27,16.74,9.44-2.1-12.92-8.83-26.79-14.65-38.77Z"/>
    </g>
    <path class="cls-1" d="m226.94,329.28c3.6,11.71,1.73,28.37-3.79,38.41,3.59-3.02,9.77-4.15,12.48-7,1.14,8.39-1.7,12.68-9.24,21.1,1.81,1.11,5.53,3.64,9.37.88-1.51,17.06-25.17,28.46-41.66,28.37-5.28-.03-4.29,28.2-8.62,31.71-2.38,1.93-3.8-3.37-3.06-4.96,3.76-8.09,6.24-27.52,4.72-30.04-5.13-5.58-14.32-10.13-15.54-27.96,5.8.62,3.75,1.24,6.5,1.73-3.6-15.87.66-18.8,3.89-23.72,2.16,3.53,2.69,6.25,5.59,9-2.71-9.92,4.11-17.55,9.96-25.94.63,4.56,2.25,9.14,2.88,13.7,1.77-9.73,19.33-14.4,26.52-25.29Z"/>
    <path class="cls-3" d="m220.14,354.28c-6.9,8.79-15.71,13.88-21.28,23.14-2.87-3.53-6.13-6.59-6.49-13.35-.7,8.61,1.06,12.38,4.84,16.39-1.81,3.67-3.2,7.9-3.98,13-3.26-2.96-5.7-6.83-7.84-12.75,1.62,7.54,3.59,12.68,7.42,16.18-.22,2.34.23,5.52.27,8.23,1.74-2.35,1.36-1.57,2.91-5.81,5.41.26,11.66,1.07,17.87-4.03-6.34,3.91-12.87,1.76-17.76,1.07.43-5.61,2.05-10.02,4.32-13.93,5.25-.05,11.36,1.84,16.79-3.65-4.93,3.8-10.52,1.73-15.07.95,5.37-7.82,13.04-14.13,18.01-25.44Z"/>
    <path class="cls-1" d="m177.51,91.3c-3.38,11.01-1.63,26.67,3.56,36.12-3.38-2.84-9.18-3.9-11.74-6.58-1.07,7.89,1.6,11.92,8.69,19.84-1.7,1.04-5.2,3.42-8.81.83,1.42,16.04,23.67,26.76,39.17,26.67,4.96-.03,4.04,26.51,8.11,29.82,2.24,1.82,3.57-3.17,2.88-4.66-3.53-7.61-5.87-25.87-4.43-28.25,4.82-5.25,13.47-9.53,14.61-26.29-5.45.58-3.52,1.17-6.12,1.63,3.39-14.92-.61-17.68-3.65-22.31-2.04,3.32-2.53,5.88-5.26,8.46,2.55-9.33-3.86-16.5-9.36-24.39-.59,4.29-2.11,8.59-2.71,12.88-1.67-9.15-18.18-13.54-24.93-23.77Z"/>
    <path class="cls-3" d="m183.9,114.81c6.49,8.26,14.26,13.67,19.5,22.38,2.7-3.32,6.28-6.82,6.62-13.18.66,8.1-1.51,12.27-5.06,16.03,1.7,3.45,3.01,7.43,3.75,12.23,3.06-2.78,5.87-7.04,7.88-12.61-1.52,7.09-3.89,12.54-7.49,15.84.2,2.2.29,4.57.26,7.12-1.64-2.21-1.27-1.48-2.73-5.46-5.09.25-10.97,1-16.81-3.79,5.96,3.68,12.1,1.65,16.7,1.01-.41-5.27-1.93-9.42-4.07-13.1-4.94-.05-10.68,1.73-15.78-3.43,4.64,3.57,9.89,1.62,14.17.89-5.05-7.35-12.27-13.29-16.93-23.92Z"/>
    <path class="cls-1" d="m233.8,163.69c3.73,11.34-4.81,25.42-10,35.31,3.45-3.02,7.6-4.36,10.2-7.19,1.27,8.16.42,12.52-6.77,20.87,1.78,1.05,4.08.8,7.77-1.95-1.15,16.65-11.34,27.47-27.96,33.53-4.84,1.77-2.46,11.98-6.62,15.49-2.29,1.93-4.89-.68-3.68-1.87,5.47-5.4,5.16-13.27,3.62-15.7-5.1-5.34-18.01-10.86-19.54-28.21,5.66.49,3.67,1.13,6.37,1.56-3.81-15.4-.93-20.39,2.13-25.25,2.18,3.4,3.95,8.1,6.83,10.72-2.83-9.61,5.32-19.6,10.86-27.88.7,4.44.72,11.28,1.42,15.72,1.54-9.52,18.56-14.4,25.36-25.15Z"/>
    <path class="cls-3" d="m221.66,183.03c-6.78,8.99-14.19,19.29-17.08,31.14-2.18-3.61-3.72-8.55-4.16-14.51-.48,7.76.43,14.02,3.32,18.34-.68,3.46-1.19,7.06-1.5,10.82-3.18-2.82-6.14-7.15-8.32-12.81,1.73,7.32,4.29,12.92,8.09,16.27-.12,2.4-.47,7.56,1.13,10.33.88-4.07,1.38-6.05,1.87-8.73,5.11-.38,10.56-3.41,16.36-8.36-5.9,3.8-11.58,5.54-16.21,5.51.3-4.36.91-8.98,1.85-13.69,4.89-1.04,9.84-4.56,14.94-9.92-4.99,4-9.98,6.28-14.32,6.99,2.37-10.59,8.62-21.75,14.03-31.38Z"/>
    <g>
      <path class="cls-3" d="m204.33,256.54c15.59-.86,32.23,16.88,32.23,31.62,0,19.69-14.7,28.17-30.95,32.01-16.64,3.93-33.09-12.41-36.18-28.5-1.22-6.35,1.02-15.41,6.5-22.6,8.14-10.68,16.06-11.85,28.39-12.53Z"/>
      <path class="cls-1" d="m182.45,315.94c-3.17,2.76-4.89,2.22-3.76,2.44,10.69,2.07,17.71,2.67,22.53,23.18,1.32,5.61,2.21,12.28,2.93,17.94.11.87,5.98-.82,5.77-1.21-5.41-10.08-3.62-21.7,1.18-30.22,2.28-4.04,6.85-5.2,12.62-12.95,1.69-1.06,3.28-2.24,4.74-3.54,6.11-5.42,10.04-12.93,10.04-23.4,0-.34-.01-.75-.04-1.21-.41-7.56-4.7-15.67-10.83-21.85-6.16-6.21-14.24-10.54-22.22-10.54-.34,0-.74.01-1.2.04h0c-6.34.35-11.56.83-16.34,2.63-4.88,1.84-9.17,5-13.49,10.66-2.82,3.7-4.83,7.86-6,11.93-1.25,4.36-1.56,8.66-.87,12.22.09.47.19.93.29,1.36,1.9,8.07,6.92,16.07,13.55,21.65.36.3.72.59,1.09.88h0Zm40.29-4.84c-2,.59-4.12,1.19-5.03.56-3.76-2.57-3.75-8.5-4.36-9.42-1.93,4.23-2.32,10.66-4.2,11.47-1.21.52-2.09-8.65-4.19-14.6-1.9,5.01-2.26,12-2.79,13.56-.66,1.91-5.31-4.62-6.27-12.19-1.28,4.81-1.73,11.47-2.94,12.69-.61.61-3.79.66-6.36.97-.94-.64-1.85-1.33-2.72-2.07-6-5.05-10.54-12.27-12.26-19.56-.1-.43-.19-.83-.26-1.21-.57-2.96-.3-6.63.8-10.42,1.05-3.63,2.83-7.34,5.34-10.63,3.83-5.02,7.57-7.79,11.77-9.38,4.29-1.62,9.19-2.06,15.18-2.39h0c.27-.01.6-.02.99-.02,6.89,0,13.98,3.86,19.46,9.38,5.51,5.55,9.34,12.72,9.7,19.32.01.28.02.61.02,1,0,9.22-3.42,15.79-8.72,20.49-.99.88-2.04,1.69-3.16,2.45Z"/>
    </g>
    <g>
      <path class="cls-3" d="m194.7,528.2c14.6-5.53,35.83,6.34,40.28,20.4,5.95,18.77-5.49,31.3-19.82,39.86-14.67,8.78-35.29-1.82-43.1-16.22-3.08-5.68-3.69-15-.63-23.51,4.54-12.65,11.73-16.16,23.27-20.53Z"/>
      <path class="cls-1" d="m191.8,591.43c-2.19,3.59-3.99,3.35-2.84,3.46,7.27.66,16.01,12.29,31.55,15.75,2.95,4.95,29.21,16.19,31.61,21.36.37.8,2.66-3.82,2.34-4.14-6.89-6.7-31.6-18.54-28.56-24.08,7.17-13.08-.01-15.46,4.99-25.62,1.29-1.52,2.45-3.12,3.45-4.81,4.19-7.01,5.66-15.36,2.5-25.34-.1-.33-.24-.71-.4-1.14-2.68-7.08-9.21-13.51-16.93-17.55-7.75-4.06-16.76-5.74-24.37-3.33-.33.1-.7.24-1.13.4h0c-5.94,2.25-10.77,4.29-14.78,7.45-4.09,3.23-7.23,7.54-9.64,14.24-1.57,4.38-2.23,8.95-2.11,13.19.12,4.53,1.13,8.72,2.86,11.91.23.43.46.83.69,1.21,4.26,7.12,11.46,13.23,19.46,16.54.43.18.87.35,1.3.51h0Zm36.94-16.79c-1.73,1.17-3.57,2.37-4.63,2.05-2.81-.85-3.91,1.4-7.53,4.54-.67.58-13.19-.3-15.61,4.38-.4.77-3.41,1.78-5.77,2.85-1.08-.32-2.16-.71-3.22-1.15-7.24-3-13.75-8.52-17.6-14.94-.22-.38-.43-.74-.61-1.08-1.44-2.65-2.29-6.23-2.39-10.17-.1-3.78.48-7.86,1.88-11.75,2.13-5.94,4.86-9.72,8.38-12.5,3.6-2.84,8.14-4.74,13.74-6.87h0c.25-.1.56-.2.93-.32,6.57-2.08,14.49-.55,21.39,3.06,6.93,3.62,12.75,9.3,15.09,15.48.1.26.21.57.32.94,2.79,8.79,1.52,16.08-2.11,22.17-.68,1.14-1.43,2.23-2.27,3.29Z"/>
    </g>
    <g>
      <path class="cls-3" d="m192.5,25.63c-13.59,4.68-21.62,25.58-16.5,38.15,6.84,16.79,22.31,18.91,37.5,16.54,15.55-2.43,23.9-22.07,20.95-36.86-1.16-5.83-6.22-12.78-13.4-17.01-10.65-6.28-17.81-4.53-28.56-.83Z"/>
      <path class="cls-1" d="m231.78,68.68c3.66,1.25,3.02-.21,2.27.54-4.76,4.74-4.54,13.11-14.13,19.77.41,4.45.45,11-1.23,15.75.21.79-3.5,3.16-3.46,2.74.94-8.8,2.25-16.45-3.17-18.59-12.78-5.03-9.41-2.36-15.76-6.6-1.81-.32-3.57-.77-5.27-1.37-7.09-2.5-13.05-7.54-16.69-16.47-.12-.29-.25-.64-.39-1.05-2.27-6.59-1.43-14.99,1.65-22.39,3.1-7.43,8.48-13.93,15.29-16.7.29-.12.63-.25,1.04-.38h0c5.52-1.9,10.14-3.31,14.85-3.43,4.8-.12,9.55,1.08,15.2,4.4,3.69,2.18,6.85,5.03,9.26,8.09,2.58,3.28,4.33,6.84,4.99,10.11.09.44.16.86.23,1.27,1.18,7.54-.32,16.11-4.04,23.16-.2.38-.41.76-.62,1.13h0Zm-36.03,9.87c1.91-.19,3.92-.42,4.48-1.27,1.49-2.26,3.59-1.31,8.01-1.22.81.02,9.15-7.98,13.63-6.09.73.31,3.46-.75,5.76-1.38.58-.87,1.11-1.77,1.6-2.71,3.36-6.38,4.72-14.12,3.65-20.93-.06-.4-.13-.77-.2-1.13-.54-2.73-2.05-5.76-4.29-8.61-2.15-2.73-4.97-5.28-8.25-7.21-5.01-2.95-9.16-4.02-13.29-3.91-4.22.11-8.55,1.43-13.77,3.23h0c-.23.08-.52.19-.85.33-5.88,2.39-10.58,8.14-13.34,14.76-2.77,6.64-3.55,14.09-1.57,19.84.08.24.19.53.33.86,3.2,7.86,8.39,12.28,14.55,14.44,1.14.4,2.33.73,3.54.99Z"/>
    </g>
  </g>
  <path class="cls-4" d="m716.51,55.43c13.37,1.28,15.38,13.21,15.79,24.07,1.04,26.68-9.14,50.02,16.82,80.22,3.19,4.53,5.54,7.89,7.49,12.26,1.23-5.35,3.18-10.68,6.37-16.06l3.14,3.17c-9.41,15.86-4.43,44.67-9.55,62.73-4.59,16.17-11.96,24.82-25.01,36.87-4.07,14.69-12.69,25.06-10.3,43.02,1.13,8.5,4.7,16.87,9.95,25,3.31,5.13,7.09,9.76,10.83,14.33,2.8,3.43,5.58,6.83,8.15,10.41-.9-11.03.51-20.36,2.16-28.37l6.02,1.13c-9.38,45.63,23,92.82-25.47,130.99,4.9,27.97,11.32,55.73,13.76,84.64,3.13,37.09-10.4,50.4-28.61,68.31-11.18,11-24.23,23.83-35.97,45.72l-6.86-3.69c8.38-15.62,17.34-26.77,25.86-35.9,2.61-10.11,6.23-18.22,9.78-26.17,5.76-12.92,11.33-25.4,11.49-45.37l5.8,1.79c-.19,24.11-9.38,38.58-15.64,58.16l.09-.09c16.7-16.43,29.12-28.64,26.29-62.12-2.87-33.96-6.25-51.9-9.36-68.42-2.4-12.73-3.86-24.7-5.6-42.31l5.31-.52c.57,5.71,1.32,11.4,2.19,17.06,25.39-22.36,24.69-50.92,21.25-76.01-3.95-9.23-10.66-16.97-16.67-24.34-9.04-11.06-16.65-21.49-19.71-35.8-3.25-15.19-1.49-31.49,5.11-42.98,5.28-10.04,9.93-20.06,5.25-39.25l3.78-.92c2.27,8.55,3.49,15.46,2.96,21.64,5.6-5.68,8.98-10.7,12.44-16.89,4.42-7.92,6.79-15.79,7.57-23.52.8-7.95.79-15.63,1.35-23.18-2.41-7.63-7.72-14.78-12-20.85-3.86-5.48-7.78-11.04-10.71-18.02-7.03-16.75-6.15-30.16-5.29-43.43.13-1.94.51-5.76.77-10.28-39.41-14.65-89.49-6.44-131.38-13.86l1-4.07c42.94,7.61,88.66-3.21,130.63,11.63.02-1.15.03-2.32.02-3.48-.06-6.15-.37-13.82-4.13-19.02-1.7-2.35-3.99-3.82-7.01-4.1l-.15-4.14Z"/>
  <g>
    <path class="cls-13" d="m751.18,465.89c.8,17.8,6.44,30.79,4.26,46.35-2.86,20.38-13.41,31.55-30.64,41.82-10.32-19.03-12.08-37.75-.55-57.09,6.46-10.82,18.05-21.11,26.93-31.09Z"/>
    <path class="cls-8" d="m756.4,485.27c1.6,9.17,3.09,17.69,1.74,27.35-1.5,10.7-5.04,19.01-10.48,26-5.37,6.91-12.57,12.47-21.47,17.78l-2.45,1.46-1.35-2.49c-5.35-9.87-8.49-19.71-8.79-29.66-.3-9.99,2.26-19.99,8.31-30.13,4.69-7.87,11.86-15.31,18.85-22.57,2.87-2.98,5.71-5.93,8.38-8.93,5.74-10.65,8.29-20.84,9.62-30.75.65-4.85,1.07-12.28,2.83-16.1,1.59-3.45,4.92-1.68,6.01,2.27,1.42,5.1-.47,9.6-1.67,14.52-2.04,8.3-3.98,16.64-7.68,24.32-5.06,10.5-3.95,14.92-1.85,26.93h0Zm-5.38.94c-.77-4.39-1.56-8.94-2.08-13.87-1.39,1.47-2.82,2.95-4.26,4.44-6.77,7.04-13.73,14.26-18.1,21.59-5.49,9.2-7.81,18.22-7.54,27.19.25,8.17,2.67,16.36,6.82,24.66,7.19-4.51,13.06-9.25,17.48-14.95,4.86-6.25,8.03-13.72,9.39-23.4,1.23-8.79-.19-16.92-1.72-25.66Z"/>
    <path class="cls-11" d="m744.29,496.13c5.5,13.57,3.84,22.64-8.87,37-2.91,3.29-4.17-.48-2.47-2.37,9.04-9.98,12-19.91,11.34-34.63Z"/>
  </g>
  <g>
    <path class="cls-13" d="m716.76,349.58c-2.06,9.7-4.97,17.44-9.13,26.5-6.76,14.74-3.54,27.95,3.17,38.77,4.6,7.4,10.83,13.69,16.62,18.58,12.21-15.7,16.62-32.39,9.07-51.64-4.23-10.77-13.18-21.84-19.73-32.21Z"/>
    <path class="cls-8" d="m717.94,356.32c-.71,2.62-1.5,5.14-2.38,7.64-1.53,4.36-3.33,8.64-5.45,13.25-3.15,6.87-3.98,13.36-3.23,19.4.75,6.07,3.08,11.71,6.25,16.8,2.2,3.55,4.81,6.84,7.55,9.82,2.06,2.24,4.21,4.32,6.33,6.22,4.91-6.79,8.26-13.76,9.69-21.03,1.58-8.04.84-16.53-2.74-25.64-2.87-7.31-8.06-14.87-13.12-22.24-.98-1.42-1.95-2.84-2.89-4.23h0Zm-7.53,5.85c2.74-7.81,3.17-11.97.18-19.2-5.99-14.5-5.82-25.78-5.48-36.97.08-2.51.44-9.03,1.94-12.51,3.61-8.41,7.25,3.09,4.35,10.73-3.62,9.54-2.12,25.65,3.29,37.74,2.7,6.03,6.96,10.17,10.63,15.51,5.26,7.65,10.65,15.5,13.72,23.32,3.98,10.14,4.8,19.63,3.02,28.67-1.77,8.99-6.11,17.47-12.47,25.64l-1.74,2.24-2.17-1.84c-2.97-2.51-6.06-5.39-9-8.59-2.97-3.23-5.78-6.79-8.17-10.64-3.55-5.72-6.18-12.1-7.03-19.02-.86-6.96.09-14.44,3.7-22.32,2.04-4.45,3.78-8.58,5.25-12.78Z"/>
    <path class="cls-11" d="m718.46,378.02c-7.01,11.47-6.87,19.93,2.48,34.86,2.14,3.41,3.85.19,2.59-1.77-6.69-10.4-7.89-19.84-5.07-33.08Z"/>
  </g>
  <g>
    <path class="cls-13" d="m763.68,240.29c2.4,11.32,5.81,20.36,10.66,30.95,10.41,22.7-1.85,51.82-20.06,67.23-14.26-18.33-22.46-38.08-13.64-60.56,4.93-12.58,15.39-25.5,23.04-37.61Z"/>
    <path class="cls-8" d="m766.34,239.73c1.18,5.56,2.6,10.55,4.32,15.42,1.73,4.91,3.76,9.75,6.15,14.96,5.21,11.35,5.09,24.15,1.5,36.18-3.98,13.33-12.26,25.79-22.28,34.25l-2.17,1.84-1.74-2.24c-7.33-9.43-13.11-19.25-15.95-29.68-2.88-10.58-2.72-21.7,1.93-33.55,3.57-9.11,9.85-18.25,15.97-27.15t0,0c5.23-7.61,7.09-9.59,6.97-18.58-.22-16.89,3.14-29.51,7.93-41.13,5.04-12.2,6.31,1.52,3.27,8.13-4.53,9.89-7.23,22.62-5.91,41.54h0Zm-.83,17.21c-1.13-3.22-2.14-6.46-3.03-9.86-1.28,1.89-2.6,3.83-3.94,5.77h0c-5.93,8.64-12.02,17.5-15.38,26.05-4.17,10.64-4.32,20.64-1.74,30.13,2.4,8.81,7.15,17.26,13.23,25.44,8.27-7.72,15.03-18.38,18.42-29.74,3.24-10.86,3.39-22.32-1.22-32.36-2.46-5.37-4.56-10.35-6.34-15.43Z"/>
    <path class="cls-11" d="m761.69,273.5c8.2,13.39,8.03,23.28-2.9,40.71-2.5,3.98-4.5.22-3.03-2.07,7.81-12.15,9.21-23.17,5.92-38.64Z"/>
  </g>
  <g>
    <path class="cls-13" d="m722.34,149.27c-2.48,9.6-5.72,17.21-10.26,26.09-7.39,14.44-4.75,27.77,1.5,38.86,4.27,7.59,10.23,14.14,15.8,19.28,12.87-15.15,18-31.64,11.29-51.2-3.76-10.95-12.23-22.39-18.32-33.03Z"/>
    <path class="cls-8" d="m723.21,156.06c-.83,2.6-1.73,5.09-2.71,7.54-1.71,4.27-3.69,8.47-6.01,12.99-3.44,6.72-4.55,13.18-4.07,19.23.48,6.09,2.58,11.83,5.52,17.06,2.06,3.66,4.51,7.06,7.11,10.14,1.95,2.31,4,4.48,6.06,6.48,5.2-6.58,8.85-13.4,10.59-20.6,1.93-7.95,1.54-16.46-1.64-25.73-2.54-7.4-7.41-15.19-12.16-22.78-.91-1.46-1.82-2.91-2.7-4.34h0Zm-7.76,5.51c1.65-4.13,3.05-8.32,4.25-12.97.24-6.63-.19-14.46-2.83-21.1-1.48-3.73-3.65-7.08-6.79-9.64-2.52-2.05-11.56-6.14-1.71-8.52,2.77-.67,5.65,2.03,8.01,5.42,2.36,3.4,4.2,7.51,4.89,9.68,2.15,4.52,3.09,10.86,3.36,18.22.23,6.54,2.4,9.21,5.93,14.86,4.92,7.85,9.96,15.92,12.69,23.89,3.53,10.29,3.94,19.81,1.76,28.78-2.16,8.91-6.85,17.18-13.55,25.07l-1.84,2.17-2.08-1.92c-2.84-2.62-5.8-5.62-8.63-8.98-2.84-3.37-5.5-7.05-7.71-10.97-3.3-5.87-5.65-12.35-6.2-19.3-.55-6.99.71-14.42,4.66-22.14,2.23-4.34,4.14-8.39,5.8-12.55Z"/>
    <path class="cls-11" d="m722.81,177.75c-7.51,11.16-7.73,19.62.97,34.93,1.99,3.5,3.84.35,2.67-1.66-6.24-10.68-7.03-20.16-3.64-33.27Z"/>
  </g>
  <g>
    <path class="cls-13" d="m756.46,81.64c3.8,9.16,10.35,13.22,16.02,21.41,15.58,22.48,1.39,43.89-10.22,58.17-5.35-4.75-8.89-9.78-11.29-15.3-9.11-20.9-2.59-44.03,5.49-64.28Z"/>
    <path class="cls-8" d="m767.76,93.06c2.29,2.51,4.66,5.12,6.97,8.45,8.35,12.06,8.72,23.83,5.45,34.51-3.18,10.38-9.83,19.58-15.8,26.93l-1.79,2.2-2.12-1.88c-2.82-2.5-5.18-5.1-7.15-7.8-1.98-2.72-3.56-5.53-4.84-8.45-4.78-10.97-5.47-22.46-3.9-33.84,1.54-11.18,5.26-22.24,9.36-32.54,4.49-12.88,5.91-22.29,5.14-28.52-.67-5.42-5.69-13.41-11.49-14.14-3.54-.44-9.18.5-7.77-5.89,1.15-5.24,6.84-2.76,9.97-1.43,6.92,2.93,13.85,14.24,14.36,21.41.54,7.63-.56,16.44-2.25,24.88-1.44,7.2.79,10.56,5.85,16.11h0Zm-4.03,3.67c-2.46-2.7-4.83-5.3-6.88-8.5-3.07,8.3-5.68,16.98-6.87,25.67-1.44,10.48-.83,21,3.5,30.93,1.13,2.59,2.52,5.06,4.24,7.43,1.23,1.69,2.64,3.34,4.27,4.96,5.12-6.51,10.39-14.31,12.99-22.81,2.83-9.22,2.5-19.39-4.72-29.81-2.07-2.98-4.33-5.47-6.52-7.88Z"/>
    <path class="cls-11" d="m760.93,105.1c9,9.99,11.06,22.92,4.59,39.3-1.48,3.75-3.76.89-2.87-1.27,4.67-11.45,3.47-25.53-1.72-38.03Z"/>
  </g>
  <g>
    <path class="cls-13" d="m640.54,46.92c13.75-3.62,24.07-9.15,35.94-10.97,10.98-1.68,21.51-.09,30.11,7.53,4.2,3.72,8.36,8.73,13.67,15.02-5.43,4.67-10.89,7.48-16.68,9.12-10.94,3.09-25.09,3.61-35.45-1.68-9.25-4.73-16.96-13.01-27.58-19.02Z"/>
    <path class="cls-8" d="m655.63,39.16c6.92-2.49,13.38-4.82,20.45-5.9,5.79-.89,11.51-.9,16.95.32,5.51,1.23,10.71,3.74,15.37,7.87,4.14,3.67,8.18,8.47,13.23,14.46l.72.85,1.74,2.06-2.04,1.76c-2.87,2.46-5.75,4.44-8.69,6.03-2.95,1.59-5.95,2.78-9.03,3.65-6.1,1.73-13.18,2.68-20.1,2.35-6.11-.29-12.13-1.59-17.33-4.24-4.98-2.54-9.4-5.97-14.02-9.54-10.52-8.14-16.86-10.04-30.26-11.68l-22.39-.47c-2.31-.05-7.92,1.04-7.78-2.68.08-1.95,4.1-2.25,8.38-2.21,5.7.05,24.32,1.3,30.02,1.36,9.83.09,15.71-.71,24.79-3.98h0Zm1.84,5.12c-3.3,1.19-6.7,2.41-10.31,3.55,3.2,2.16,6.16,4.45,9.04,6.68,4.43,3.43,8.68,6.71,13.17,9.01,4.45,2.27,9.71,3.39,15.11,3.64,6.31.3,12.77-.58,18.37-2.16,2.71-.76,5.34-1.81,7.92-3.2,1.89-1.02,3.76-2.23,5.63-3.66-4.4-5.22-8.02-9.44-11.61-12.62-3.93-3.48-8.31-5.59-12.96-6.64-4.71-1.06-9.76-1.03-14.94-.23-6.62,1.01-12.81,3.24-19.42,5.63Z"/>
    <path class="cls-11" d="m664.48,50.35c8.98,10,21.62,13.42,38.6,8.73,3.88-1.08,1.28-3.64-.96-2.99-11.88,3.43-25.76.75-37.64-5.73Z"/>
  </g>
  <g>
    <path class="cls-13" d="m509.32,72.25c17.59-4.64,35.46-15.61,52.27-14.72,14.83.78,22.88,4.26,35.23,18.92-11.4,11.66-20.64,17.19-35.49,16.82-16.84-.42-35.01-14.76-52-21.01Z"/>
    <path class="cls-8" d="m508.63,69.61c6.07-1.6,12.23-3.99,18.36-6.37,11.68-4.54,23.28-9.04,34.74-8.44,7.8.41,13.85,1.55,19.66,4.55,5.74,2.97,11.09,7.71,17.52,15.33l1.59,1.89-1.72,1.76c-5.91,6.05-11.3,10.52-17.19,13.46h0c-6,2.99-12.43,4.37-20.32,4.18-11.41-.28-23.01-6.39-34.48-12.43-4.67-2.46-9.33-4.91-13.88-6.91-8.39-3.68-21.54-.52-30.41.16-9.03.69-15.99-4.91-2.08-6.3,9.41-.94,18.81.05,28.21-.89h0Zm20.32-1.29c-3.87,1.5-7.75,3.01-11.63,4.33,3.98,1.85,7.99,3.96,12.01,6.08,10.92,5.75,21.95,11.56,32.07,11.81,6.96.17,12.58-1.02,17.76-3.61h0c4.72-2.37,9.16-5.9,13.96-10.63-5.21-5.93-9.62-9.71-14.23-12.1-5.02-2.6-10.41-3.59-17.44-3.96-10.31-.54-21.37,3.75-32.5,8.07Z"/>
    <path class="cls-11" d="m539.14,74.35c11.11-7.56,24.2-7.86,39.56.76,3.51,1.98.37,3.84-1.65,2.68-10.72-6.18-24.83-6.89-37.92-3.44Z"/>
  </g>
  <path class="cls-1" d="m413.66,759.13c5.76,4.88,11.53,9.75,17.29,14.63,25.6-24.6,66.96-26.86,92.27-42.94,13.89-8.82,15.74-6.77,31.43-10.97,6.19-1.65,11.58-3.68,16.25-6.03,5.9-2.97,11.16-7.68,17.97-8.45,3.09-.35,5.84.38,8.31,2.55-2.45,3.57-5.85,6.92-9.84,10.14-22.85,18.46-65.09,32.58-60.64,57.68,9.98-34.98,66.47-41.15,83.21-65.96.97-1.43,1.83-2.94,2.57-4.52.92-4.13-1.21-6.5-5.52-7.61-5.55-1.42-14.73-.75-25.73.96,2.88-3.55,5.76-7.09,8.64-10.64,35.25-14.99,68.02-11.39,103.03-28.46,19.71-9.6,41.89-25.16,49.55-46.67,2.33-6.54,3.43-12.43,6.23-17.4,3.83-6.8,6.66-12.87,7.4-19.56,1.84-16.48-2.76-31.2,12.65-49.49-19.22,15.56-15.07,35.7-19.84,48.54-4.62,12.44-9.86,19.44-15.35,25.07-10.43,10.72-17.61,23.49-27.51,33.72-7.56,7.82-25.04,13.54-34.82,18.59-6.84,3.53-13.9,6.66-21.33,8.21-23.23,4.87-41.99,18.37-56.03,18.13,6.77-11.82,31.17-22.34,50.35-34.55,16.06-10.22,32.09-26.61,39.23-44.44,8.07-20.13,2.08-45.85,6.16-68.62-15.24,25.25-2.18,66.05-41.22,92.16-17.83,11.93-37.32,24.89-54.75,39.21-23.14,19.01-46.96,37.87-69.77,58.72-16.64,15.21-38.9,20.22-59.01,26.01-6.64,2.84-13.41,5.52-20.61,7.62-9.25,2.7-19.23,4.45-30.59,4.34Z"/>
  <path class="cls-14" d="m278.2,481.73c8.89,1.09,17.5,1.84,25.02,1.94,8.65.12,18.02-1.94,28.03-4.14,12.95-2.85,26.85-5.9,44.62-5.74,14.67.13,28.59,2.49,43.82,5.08,17.7,3,37.31,6.33,60.6,6.33s42.91-3.33,60.6-6.33c15.23-2.58,29.15-4.95,43.82-5.08,17.76-.16,31.67,2.89,44.62,5.74,10.01,2.2,19.38,4.26,28.03,4.14,2.62-.03,5.43-.18,8.38-.43-.52,9.45-1.63,18.8-3.85,27.83-.3,1.21-.61,2.41-.94,3.61-1.09.04-2.17.07-3.23.09-12.59.17-23.41-2.21-34.98-4.75-11.54-2.54-23.92-5.26-37.79-5.13-11.79.1-24.75,2.31-38.94,4.72-19.05,3.23-40.17,6.82-65.72,6.82s-46.67-3.59-65.72-6.82c-14.19-2.41-27.15-4.61-38.94-4.72-13.87-.13-26.26,2.6-37.79,5.13-11.57,2.54-22.39,4.92-34.98,4.75-6.41-.09-13.19-.53-20.08-1.2-.22-.83-.45-1.66-.65-2.5-2.33-9.52-3.44-19.38-3.93-29.35Z"/>
  <g>
    <path class="cls-5" d="m488.24,410.54c5.42,17.8-3.33,42.08-15.62,44.87-1.12-4.68-3.99-9.29-3.7-15.62.58-12.51,3.11-17.56,10.97-27.07,18.4-22.26,42.04-41.03,52.07-62.81-3.4-6.69-3.76-7.41-7.16-14.1-14.26,34.75-38.72,45.69-61.6,71.71-10.93-20.38-27.25-19.23-33.61-60.75-6.16,2.76-4.82,4.91-10.97,7.67-.22,13.56,9.08,26.99,19.24,42.78,9.06,14.08,15.52,13.57,15.42,29.73-.09,13.8.96,26.79,4.17,36.83,2.65,8.32,8.26,11.82,8.38,20.35.08,5.92.17,11.84.26,17.76.16,11.49,2.32,21.36-4.86,31.08-9.23,12.5-17.42,13.87-31.8,13.12-9.03-.47-17.99-1.63-26.72-2.75-9.61-1.23-18.15-1.73-27.9-.95-4.15.33-8.39.67-12.38.67-18.95,0-15.16.11-23.03-12.68,0,17.13,9.7,18,23.53,18,4.21,0,8.65-.35,12.99-.7,7.83-.62,17.8,2.35,25.82,3.38,14.62,1.88,22.57,3.17,37.97,2.06-5.26,6.44-10.81,8.45-23.68,9.8-11.74,1.23-23.51,2.46-31.49,7.67-7.74,5.05-6.39,4.47-21.08,1.19,2.52,2.33,7.88,5.25,13.13,6.51,4.36,1.05,10.22-2.68,13.58-4.87,6.42-4.18,16.51-3.29,27.32-4.42,3.61-.38,20.82-1.15,27.96-3.33-5.95,3.26-11.81,6.58-14.12,9.46-1.21,1.51-5.1,1.45-8.89,1.39-5.1-.08-10.09-.16-13.45,3.2v.02l-1.48,1.49c-7.32,7.38-14.49,14.62-24.64,6.81,3.55,8.16,12.61,7.91,20.06,5.13,6.71-2.5,12.57-10.98,19.76-10.87,5.66.09,11.12,2.17,14.72-2.33,1.48-1.86,3.76-1.44,9.49-4.57-.24,3.08-.63,2.85-1.59,6.67-1.73,3.74-3.46,7.46-5.99,9.01-4.4,2.71-4.11,6.8-6.2,9.24-7.55,8.81-5.49,5.86-15.61,11.97,11.8,0,14.87-3.59,18.87-8.24,1.7-1.98,3.62-4.22,7.03-6.32,7.98-4.91,8.5-11.77,16.72-18.09,1.12,15.09-1.25,13.59-3.68,27.99-1.48,8.78-6.83,10.55-14.12,12.05,3.27,6.46,13.69,1.85,18.29-4.9,2.93-4.3,3-9.18,5.95-14.06,2.26,3.04,2.76,11.92,3.3,16.49.79,5.22,1.29,8.41-2.78,12.08-2.33,2.1-5.31,4.03-7.72,5.24,11.58,3.06,19.84-7.7,18.21-18.47-1.45-9.59-4.22-14.21.66-23.87,1.64,5.78,6.51,23.41,5.75,28.44-1.63,10.77,6.62,21.53,18.2,18.47-2.41-1.21-5.39-3.14-7.72-5.24-4.06-3.67-3.56-6.86-2.77-12.07.54-4.57-4.97-18.01-2.71-21.06,2.95,4.88,6.86,5.67,9.8,9.97,4.59,6.75,15.02,11.36,18.28,4.9-7.28-1.5-14.8-4.95-16.28-13.73-1.14-6.73-3.4-3.39-7.22-9.69,9.79,2.9,14.8,4.39,17.85,6.27,3.41,2.1,7.01,3.14,8.71,5.12,3.99,4.66,7.78,4.64,19.59,4.64-10.11-6.11-8.06-3.17-15.61-11.97-1.46-1.7-5.1-2-9.23-3.23-7.59-2.26-16.43-10.76-17.07-19.13,5.73,3.13,18.85,4.24,20.33,6.1,3.6,4.5,9.06,2.42,14.72,2.33,7.18-.11,13.05,8.37,19.76,10.87,7.45,2.78,16.52,3.03,20.06-5.13-10.15,7.81-17.33.57-24.64-6.81l-1.48-1.49v-.02c-3.36-3.36-8.35-3.28-13.45-3.2-3.79.06-7.68.12-8.89-1.39-3.85-4.82-11.51-8.04-16.82-10.94.4-1.05,27.32,4.46,30.67,4.81,10.8,1.13,23.14-3.91,29.55.27,3.36,2.19,9.22,5.91,13.58,4.87,5.25-1.26,10.61-4.18,13.13-6.51-14.69,3.27-13.35,3.86-21.08-1.19-7.98-5.2-21.98-2.3-33.72-3.52-12.88-1.35-18.43-3.36-23.69-9.8,15.39,1.11,22.93,5.36,37.55,3.47,8.01-1.03,17.99-4.01,25.82-3.38,4.34.35,8.78.7,12.99.7,13.83,0,23.53-.87,23.53-18-7.88,12.8-4.08,12.69-23.03,12.69-3.99,0-8.23-.34-12.38-.67-9.75-.78-18.29-.28-27.9.95-18.02.96-47.91,1.97-57.63-17.6-2.31-4.65-4.74-6.93-5.76-15.17-1.09-9.63-.38-18.21-.35-27.18.05-12.46,1.84-17.56,6.07-29.48,3.67-10.32,6.22-19.85,7.66-28.6,2.58-15.67,3.26-19.91-3.46-31.76-3.69,3.86-7.08,7.45-10.68,11.46Z"/>
    <path class="cls-5" d="m444.24,343.82c8.87,22.26,21.12,29.5,31.47,44.1,3.62-3.34,7.21-6.52,10.73-9.69-11.92-16.3-20.95-21.2-28.42-42.06-4.77,2.09-9.05,4.34-13.56,7.47l-.22.18Z"/>
  </g>
</svg>